<svg width="29" height="27" viewBox="0 0 29 27" fill="none" xmlns="http://www.w3.org/2000/svg">
<path d="M3.19687 4.5H1.5C1.08579 4.5 0.75 4.83579 0.75 5.25C0.75 5.66421 1.08579 6 1.5 6H3.1897L5.80586 20.3842C5.87071 20.7408 6.1813 21 6.54375 21H17.25C17.6642 21 18 20.6642 18 20.25C18 19.8358 17.6642 19.5 17.25 19.5H7.16965L4.66656 5.73753C4.57185 5.20455 4.15861 4.85489 4.15861 4.85489C3.74536 4.50522 3.19687 4.5 3.19687 4.5Z" fill="#103C4A"/>
<path fill-rule="evenodd" clip-rule="evenodd" d="M7.5 19.5C7.5 19.5 8.58731 19.5 9.35616 20.2688C9.35616 20.2688 10.125 21.0377 10.125 22.125C10.125 22.125 10.125 23.2123 9.35616 23.9812C9.35616 23.9812 8.58731 24.75 7.5 24.75C7.5 24.75 6.41269 24.75 5.64384 23.9812C5.64384 23.9812 4.875 23.2123 4.875 22.125C4.875 22.125 4.875 21.0377 5.64384 20.2688C5.64384 20.2688 6.41269 19.5 7.5 19.5ZM7.5 21C7.5 21 7.03401 21 6.7045 21.3295C6.7045 21.3295 6.375 21.659 6.375 22.125C6.375 22.125 6.375 22.591 6.7045 22.9205C6.7045 22.9205 7.03401 23.25 7.5 23.25C7.5 23.25 7.96599 23.25 8.29549 22.9205C8.29549 22.9205 8.625 22.591 8.625 22.125C8.625 22.125 8.625 21.659 8.29549 21.3295C8.29549 21.3295 7.96599 21 7.5 21Z" fill="#103C4A"/>
<path fill-rule="evenodd" clip-rule="evenodd" d="M17.25 19.5C17.25 19.5 18.3373 19.5 19.1062 20.2688C19.1062 20.2688 19.875 21.0377 19.875 22.125C19.875 22.125 19.875 23.2123 19.1062 23.9812C19.1062 23.9812 18.3373 24.75 17.25 24.75C17.25 24.75 16.1627 24.75 15.3938 23.9812C15.3938 23.9812 14.625 23.2123 14.625 22.125C14.625 22.125 14.625 21.0377 15.3938 20.2688C15.3938 20.2688 16.1627 19.5 17.25 19.5ZM17.25 21C17.25 21 16.784 21 16.4545 21.3295C16.4545 21.3295 16.125 21.659 16.125 22.125C16.125 22.125 16.125 22.591 16.4545 22.9205C16.4545 22.9205 16.784 23.25 17.25 23.25C17.25 23.25 17.716 23.25 18.0455 22.9205C18.0455 22.9205 18.375 22.591 18.375 22.125C18.375 22.125 18.375 21.659 18.0455 21.3295C18.0455 21.3295 17.716 21 17.25 21Z" fill="#103C4A"/>
<path d="M20.25 8.25H4.5C4.08579 8.25 3.75 8.58579 3.75 9C3.75 9.41421 4.08579 9.75 4.5 9.75H19.3509L18.3684 15.1373C18.3205 15.4053 18.1134 15.578 18.1134 15.578C17.9063 15.7508 17.6367 15.75 17.6367 15.75L5.85938 15.75C5.44516 15.75 5.10938 16.0858 5.10938 16.5C5.10938 16.9142 5.44516 17.25 5.85938 17.25L17.6321 17.25C18.448 17.2525 19.0744 16.7298 19.0744 16.7298C19.7009 16.2071 19.8441 15.4064 19.8441 15.4064L20.9878 9.13455C20.9959 9.09016 21 9.04513 21 9C21 8.58579 20.6642 8.25 20.25 8.25Z" fill="#103C4A"/>
<circle cx="20.2609" cy="9.91321" r="8.26087" fill="#820D0D"/>
<path d="M22.9795 11.9489H21.6544V14H20.6743V11.9489H16.3966V11.1018L20.6077 5.10585H21.6544V11.0413H22.9795V11.9489ZM20.6743 11.0413V8.14922C20.6743 7.92737 20.6763 7.72771 20.6803 7.55023C20.6843 7.36872 20.6904 7.20132 20.6985 7.04804C20.7065 6.89073 20.7126 6.74149 20.7166 6.60031C20.7247 6.45913 20.7307 6.31997 20.7348 6.18283H20.6864C20.6097 6.34417 20.521 6.5156 20.4201 6.69712C20.3233 6.8746 20.2245 7.03393 20.1237 7.1751L17.3949 11.0413H20.6743Z" fill="white"/>
</svg>
