<svg width="33" height="32" viewBox="0 0 33 32" fill="none" xmlns="http://www.w3.org/2000/svg">
<path d="M28.8176 12.85C28.3426 12.3625 27.8551 11.85 27.6676 11.4125C27.4801 10.975 27.4926 10.325 27.4801 9.6625C27.4676 8.45 27.4426 7.0625 26.4801 6.1C25.5176 5.1375 24.1301 5.1125 22.9176 5.1C22.2551 5.0875 21.5801 5.075 21.1676 4.9125C20.7551 4.75 20.2176 4.2375 19.7301 3.7625C18.8676 2.9375 17.8801 2 16.5801 2C15.2801 2 14.2926 2.9375 13.4301 3.7625C12.9426 4.2375 12.4301 4.725 11.9926 4.9125C11.5551 5.1 10.9051 5.0875 10.2426 5.1C9.03008 5.1125 7.64258 5.1375 6.68008 6.1C5.71758 7.0625 5.69258 8.45 5.68008 9.6625C5.66758 10.325 5.65508 11 5.49258 11.4125C5.33008 11.825 4.81758 12.3625 4.34258 12.85C3.51758 13.7125 2.58008 14.7 2.58008 16C2.58008 17.3 3.51758 18.2875 4.34258 19.15C4.81758 19.6375 5.30508 20.15 5.49258 20.5875C5.68008 21.025 5.66758 21.675 5.68008 22.3375C5.69258 23.55 5.71758 24.9375 6.68008 25.9C7.64258 26.8625 9.03008 26.8875 10.2426 26.9C10.9051 26.9125 11.5801 26.925 11.9926 27.0875C12.4051 27.25 12.9426 27.7625 13.4301 28.2375C14.2926 29.0625 15.2801 30 16.5801 30C17.8801 30 18.8676 29.0625 19.7301 28.2375C20.2176 27.7625 20.7301 27.275 21.1676 27.0875C21.6051 26.9 22.2551 26.9125 22.9176 26.9C24.1301 26.8875 25.5176 26.8625 26.4801 25.9C27.4426 24.9375 27.4676 23.55 27.4801 22.3375C27.4926 21.675 27.5051 21 27.6676 20.5875C27.8301 20.175 28.3426 19.6375 28.8176 19.15C29.6426 18.2875 30.5801 17.3 30.5801 16C30.5801 14.7 29.6426 13.7125 28.8176 12.85ZM22.7676 13.725L15.4426 20.725C15.2532 20.9031 15.0026 21.0016 14.7426 21C14.4864 21.001 14.2399 20.9024 14.0551 20.725L10.3926 17.225C10.291 17.1364 10.2084 17.0281 10.1497 16.9067C10.091 16.7854 10.0575 16.6534 10.0511 16.5187C10.0447 16.3841 10.0657 16.2495 10.1126 16.1231C10.1596 15.9968 10.2316 15.8812 10.3244 15.7834C10.4171 15.6856 10.5287 15.6075 10.6524 15.5539C10.7761 15.5003 10.9094 15.4723 11.0442 15.4715C11.179 15.4707 11.3126 15.4972 11.4369 15.5493C11.5612 15.6015 11.6737 15.6783 11.7676 15.775L14.7426 18.6125L21.3926 12.275C21.587 12.1054 21.8395 12.0174 22.0973 12.0296C22.355 12.0418 22.5981 12.1532 22.7756 12.3404C22.9532 12.5277 23.0515 12.7763 23.05 13.0343C23.0485 13.2924 22.9473 13.5398 22.7676 13.725Z" fill="#D2D2D2"/>
</svg>
