<svg width="33" height="33" viewBox="0 0 33 33" fill="none" xmlns="http://www.w3.org/2000/svg">
<path d="M28.8151 13.35C28.3401 12.8625 27.8526 12.35 27.6651 11.9125C27.4776 11.475 27.4901 10.825 27.4776 10.1625C27.4651 8.95 27.4401 7.5625 26.4776 6.6C25.5151 5.6375 24.1276 5.6125 22.9151 5.6C22.2526 5.5875 21.5776 5.575 21.1651 5.4125C20.7526 5.25 20.2151 4.7375 19.7276 4.2625C18.8651 3.4375 17.8776 2.5 16.5776 2.5C15.2776 2.5 14.2901 3.4375 13.4276 4.2625C12.9401 4.7375 12.4276 5.225 11.9901 5.4125C11.5526 5.6 10.9026 5.5875 10.2401 5.6C9.02764 5.6125 7.64014 5.6375 6.67764 6.6C5.71514 7.5625 5.69014 8.95 5.67764 10.1625C5.66514 10.825 5.65264 11.5 5.49014 11.9125C5.32764 12.325 4.81514 12.8625 4.34014 13.35C3.51514 14.2125 2.57764 15.2 2.57764 16.5C2.57764 17.8 3.51514 18.7875 4.34014 19.65C4.81514 20.1375 5.30264 20.65 5.49014 21.0875C5.67764 21.525 5.66514 22.175 5.67764 22.8375C5.69014 24.05 5.71514 25.4375 6.67764 26.4C7.64014 27.3625 9.02764 27.3875 10.2401 27.4C10.9026 27.4125 11.5776 27.425 11.9901 27.5875C12.4026 27.75 12.9401 28.2625 13.4276 28.7375C14.2901 29.5625 15.2776 30.5 16.5776 30.5C17.8776 30.5 18.8651 29.5625 19.7276 28.7375C20.2151 28.2625 20.7276 27.775 21.1651 27.5875C21.6026 27.4 22.2526 27.4125 22.9151 27.4C24.1276 27.3875 25.5151 27.3625 26.4776 26.4C27.4401 25.4375 27.4651 24.05 27.4776 22.8375C27.4901 22.175 27.5026 21.5 27.6651 21.0875C27.8276 20.675 28.3401 20.1375 28.8151 19.65C29.6401 18.7875 30.5776 17.8 30.5776 16.5C30.5776 15.2 29.6401 14.2125 28.8151 13.35ZM22.7651 14.225L15.4401 21.225C15.2508 21.4031 15.0001 21.5016 14.7401 21.5C14.484 21.501 14.2375 21.4024 14.0526 21.225L10.3901 17.725C10.2886 17.6364 10.2059 17.5281 10.1473 17.4067C10.0886 17.2854 10.055 17.1534 10.0487 17.0187C10.0423 16.8841 10.0632 16.7495 10.1102 16.6231C10.1571 16.4968 10.2292 16.3812 10.3219 16.2834C10.4147 16.1856 10.5263 16.1075 10.65 16.0539C10.7737 16.0003 10.9069 15.9723 11.0417 15.9715C11.1766 15.9707 11.3101 15.9972 11.4344 16.0493C11.5588 16.1015 11.6712 16.1783 11.7651 16.275L14.7401 19.1125L21.3901 12.775C21.5846 12.6054 21.8371 12.5174 22.0948 12.5296C22.3526 12.5418 22.5956 12.6532 22.7732 12.8404C22.9507 13.0277 23.049 13.2763 23.0475 13.5343C23.046 13.7924 22.9449 14.0398 22.7651 14.225Z" fill="#1A932E"/>
</svg>
