<svg width="38" height="38" viewBox="0 0 38 38" fill="none" xmlns="http://www.w3.org/2000/svg">
<g clip-path="url(#clip0_11_4674)">
<path d="M38 19C38 8.50551 29.4945 0 19 0C8.50551 0 0 8.50551 0 19C0 28.4852 6.94688 36.3449 16.0312 37.7699V24.4922H11.207V19H16.0312V14.8141C16.0312 10.0529 18.8664 7.42188 23.2082 7.42188C25.2863 7.42188 27.4609 7.79297 27.4609 7.79297V12.4688H25.0637C22.7035 12.4688 21.9688 13.9346 21.9688 15.4375V19H27.2382L26.3959 24.4922H21.9688V37.7699C31.0531 36.3449 38 28.4852 38 19Z" fill="#1877F2"/>
<path d="M26.3959 24.4922L27.2382 19H21.9687V15.4375C21.9687 13.9346 22.7035 12.4688 25.0637 12.4688H27.4609V7.79297C27.4609 7.79297 25.2863 7.42188 23.2082 7.42188C18.8664 7.42188 16.0312 10.0529 16.0312 14.8141V19H11.207V24.4922H16.0312V37.7699C16.9998 37.9221 17.9906 38 19 38C20.0094 38 21.0002 37.9221 21.9687 37.7699V24.4922H26.3959Z" fill="white"/>
</g>
<defs>
<clipPath id="clip0_11_4674">
<rect width="38" height="38" fill="white"/>
</clipPath>
</defs>
</svg>
