<svg width="38" height="38" viewBox="0 0 38 38" fill="none" xmlns="http://www.w3.org/2000/svg">
<g clip-path="url(#clip0_11_4675)">
<circle cx="19" cy="19" r="19" fill="url(#paint0_linear_11_4675)"/>
<path fill-rule="evenodd" clip-rule="evenodd" d="M24.1197 6.3335H13.8803C9.71888 6.3335 6.33334 9.71903 6.33334 13.8804V24.1199C6.33334 28.2813 9.71888 31.6668 13.8803 31.6668H24.1197C28.2811 31.6668 31.6667 28.2813 31.6667 24.1199V13.8804C31.6666 9.71903 28.2811 6.3335 24.1197 6.3335ZM29.1181 24.1199C29.1181 26.8804 26.8803 29.1183 24.1197 29.1183H13.8803C11.1198 29.1183 8.88188 26.8804 8.88188 24.1199V13.8804C8.88188 11.1199 11.1198 8.88203 13.8803 8.88203H24.1197C26.8803 8.88203 29.1181 11.1199 29.1181 13.8804V24.1199ZM19 12.448C15.3872 12.448 12.4479 15.3873 12.4479 19.0001C12.4479 22.6129 15.3872 25.5522 19 25.5522C22.6128 25.5522 25.5521 22.6129 25.5521 19.0001C25.5521 15.3873 22.6128 12.448 19 12.448ZM19 23.0037C16.7889 23.0037 14.9964 21.2113 14.9964 19.0001C14.9964 16.789 16.7889 14.9966 19 14.9966C21.2111 14.9966 23.0036 16.789 23.0036 19.0001C23.0036 21.2112 21.2111 23.0037 19 23.0037ZM27.1348 12.4973C27.1348 13.3644 26.4319 14.0673 25.5648 14.0673C24.6977 14.0673 23.9948 13.3644 23.9948 12.4973C23.9948 11.6302 24.6977 10.9273 25.5648 10.9273C26.4319 10.9273 27.1348 11.6302 27.1348 12.4973Z" fill="white"/>
</g>
<defs>
<linearGradient id="paint0_linear_11_4675" x1="7.71875" y1="38" x2="24.9375" y2="4.927e-07" gradientUnits="userSpaceOnUse">
<stop stop-color="#FBD06F"/>
<stop offset="0.3" stop-color="#F16C2E"/>
<stop offset="0.6" stop-color="#C82E96"/>
<stop offset="1" stop-color="#4E6AD6"/>
</linearGradient>
<clipPath id="clip0_11_4675">
<rect width="38" height="38" fill="white"/>
</clipPath>
</defs>
</svg>
