<svg width="64" height="64" viewBox="0 0 64 64" fill="none" xmlns="http://www.w3.org/2000/svg">
<path d="M57.4719 32.1542C57.4719 41.0759 50.2531 48.3084 41.3483 48.3084C32.4434 48.3084 25.2246 41.0759 25.2246 32.1542C25.2246 23.2325 32.4434 16 41.3483 16C50.2531 16 57.4719 23.2325 57.4719 32.1542Z" fill="#F79F1A"/>
<path d="M37.5803 32.1542C37.5803 41.0759 30.3615 48.3084 21.4567 48.3084C12.5518 48.3084 5.33301 41.0759 5.33301 32.1542C5.33301 23.2325 12.5518 16 21.4567 16C30.3615 16 37.5803 23.2325 37.5803 32.1542Z" fill="#EA001B"/>
<path d="M31.4025 19.4375C27.6405 22.3948 25.2256 26.9903 25.2256 32.1527C25.2256 37.3151 27.6405 41.9141 31.4025 44.8714C35.1646 41.9141 37.5795 37.3151 37.5795 32.1527C37.5795 26.9903 35.1646 22.3948 31.4025 19.4375Z" fill="#FF5F01"/>
</svg>
