<svg width="60" height="60" viewBox="0 0 60 60" fill="none" xmlns="http://www.w3.org/2000/svg">
<path d="M30.2998 1.80005C29.517 1.8938 5.11855 18.2532 4.97793 18.7501C4.8373 19.2516 4.78105 24.4641 4.78105 24.4641L7.92637 25.4626L7.94043 29.6063L9.62324 33.0516V47.6157L8.36699 50.3579L4.92168 51.3751V53.8407L2.22168 54.661C2.22168 54.661 2.25918 56.7751 2.25918 57.1266C2.25918 57.4782 2.37637 58.2235 3.7873 58.2235C5.19824 58.2235 56.6951 57.9844 57.2154 57.9844C57.7357 57.9844 58.2748 57.8813 58.3029 56.9485C58.3311 56.0157 58.2748 54.6985 58.2748 54.6985L55.6592 53.4047L55.6498 51.3376L51.3936 50.0251L50.367 47.1188L50.3811 33.4266L52.0123 29.986L52.5045 29.0532V25.3501L55.2467 24.3141C55.2467 24.3141 55.2982 18.9563 55.2186 18.8016C55.1482 18.6516 30.9467 1.72505 30.2998 1.80005Z" fill="#CDDFEE"/>
<path d="M7.18594 19.8375C7.04063 20.1984 7.00313 22.8609 7.13438 22.9922C7.26562 23.1234 52.575 23.0531 52.7297 22.9266C52.8844 22.8 52.9078 19.9078 52.8328 19.7297C52.7578 19.5516 39.9844 10.8281 39.9844 10.8281L20.2359 10.9266C20.2312 10.9266 7.27031 19.6219 7.18594 19.8375ZM2.22188 54.6703C2.17969 54.5672 2.22188 54.0797 2.22188 53.8828C2.22188 53.6859 2.40938 53.4609 2.83125 53.4609C3.25313 53.4609 56.8031 53.3859 57.0656 53.3953C57.7266 53.4188 58.1719 53.5594 58.2375 53.9813C58.3031 54.4031 58.2797 54.7078 58.2797 54.7078L2.22188 54.6703ZM55.6547 51.3422L4.92656 51.3797C4.92656 51.3797 4.94531 50.8594 4.94531 50.6813C4.94531 50.5031 5.03906 50.2125 5.64375 50.2125C6.24844 50.2125 54.3563 50.0297 54.7687 50.0297C55.1813 50.0297 55.6313 50.2219 55.6875 50.5078C55.7438 50.7938 55.6547 51.3422 55.6547 51.3422ZM50.7469 48.2016L50.3719 47.1047L9.61406 47.0953L9.30938 48.3188L50.7469 48.2016ZM9.14531 32.0531L50.9859 32.1984L50.3859 33.4266L9.62813 33.5813L9.14531 32.0531ZM8.23125 30.3281C8.23125 30.3281 7.86094 30.0609 7.8 29.7094C7.73906 29.3578 7.90313 29.1516 7.90313 29.1516L52.5094 29.0531C52.5094 29.0531 52.6781 29.4 52.5328 29.6437C52.3875 29.8922 51.975 30.1172 51.975 30.1172L8.23125 30.3281ZM4.78125 24.4641L55.2516 24.3141C55.2516 24.3141 55.2844 24.7969 55.2516 24.9984C55.2234 25.2 54.9609 25.3781 54.2906 25.3781H53.6203C53.6203 25.3781 6.375 25.6125 5.85 25.6125C5.325 25.6125 4.95 25.3219 4.86094 25.0875C4.80938 24.9328 4.78125 24.4641 4.78125 24.4641Z" fill="#94ADBC"/>
<path d="M8.44238 21.1079L19.0596 13.9407L19.7721 21.2485L8.44238 21.1079ZM41.0393 13.7017L51.6705 21.2017H40.7533L41.0393 13.7017Z" fill="#657582"/>
<path d="M15.6613 30.2954L17.4098 30.2907L18.7785 33.5767L18.652 47.1048L17.5129 50.1704L15.4785 50.1751L14.3582 47.1235L14.3066 33.5485L15.6613 30.2954ZM24.9707 30.2485L23.2316 33.5017L23.3629 47.1048L24.3941 50.147L35.752 50.1001L36.7738 47.1048L36.802 33.4735L35.4754 30.197L24.9707 30.2485ZM42.8301 30.1642L44.3723 30.1548L45.7363 33.4407L45.7316 47.1095L44.9395 50.072L42.366 50.0767L41.5785 47.1095L41.5176 33.4548L42.8301 30.1642Z" fill="#54636E"/>
<path d="M25.6035 50.1421V39.7124L34.7535 39.8015L34.7723 50.114L25.6035 50.1421Z" fill="#6BA4AE"/>
<path d="M29.6531 39.2393L29.6484 50.1283L30.5953 50.1236V39.3986L29.6531 39.2393Z" fill="#A5D0D7"/>
<path d="M25.6035 40.2094V37.5938H34.7535V40.2094C34.7535 40.2094 25.6832 40.1297 25.6035 40.2094Z" fill="#95ACBC"/>
<path d="M25.6032 37.5937H34.7532C34.7532 37.5937 34.7907 36.7781 33.9423 36.6984C33.0939 36.6187 26.8595 36.6844 26.3345 36.6984C25.5517 36.7219 25.6032 37.5937 25.6032 37.5937Z" fill="#CCDEED"/>
<path d="M30.1825 5.20779C23.3903 5.24998 18.0137 10.6219 18.2434 17.414C18.4731 24.2062 24.7028 28.9828 30.1825 28.9406C35.934 28.8984 41.9903 24.7828 42.2622 17.3765C42.5387 9.97498 36.3044 5.16561 30.1825 5.20779Z" fill="#CDDFEE"/>
<path d="M30.225 6.83418C24.5391 6.87168 19.9875 11.5357 20.1797 17.4514C20.3672 23.367 25.3734 27.117 29.9625 27.1592C35.2547 27.2061 40.125 23.7467 40.35 17.3014C40.575 10.8561 35.3485 6.80137 30.225 6.83418Z" fill="#94ADBC"/>
<path d="M28.584 10.1393C28.584 10.1393 28.4809 8.32988 28.6074 8.1752C28.734 8.02051 29.2496 8.02051 30.248 8.02051C31.2512 8.02051 31.659 8.02051 31.8137 8.14707C31.9684 8.27363 31.8887 10.2518 31.8887 10.2518C31.8887 10.2518 33.248 10.7627 34.0965 11.4189C34.9965 12.1127 35.6387 13.0361 35.5871 13.1908C35.5355 13.3455 33.7402 14.9111 33.4824 14.8596C33.2246 14.808 31.7621 13.0971 30.0184 12.9846C27.248 12.8064 27.2715 14.9627 28.9918 15.5533C30.7121 16.1439 36.1355 16.6127 35.9246 20.9299C35.7465 24.5627 32.0762 24.8205 32.0762 24.8205C32.0762 24.8205 32.1793 26.1799 32.0762 26.2596C31.973 26.3393 28.7387 26.3861 28.6355 26.2361C28.5324 26.0861 28.6121 24.6939 28.6121 24.6939C28.6121 24.6939 27.173 24.4127 25.9918 23.6158C24.8105 22.8189 23.9621 21.7689 23.9387 21.6377C23.9152 21.5111 26.0199 19.7393 26.1699 19.6877C26.3199 19.6361 28.4621 21.7455 30.4824 21.9189C32.5355 22.0971 33.4074 20.0721 30.5574 19.2002C27.7074 18.3283 24.3465 17.583 24.5012 14.0158C24.6559 10.3924 28.584 10.1393 28.584 10.1393Z" fill="#024FAC"/>
</svg>
