<svg width="300" height="60" viewBox="0 0 300 60" fill="none" xmlns="http://www.w3.org/2000/svg">
<rect x="7.50021" y="7.50021" width="45" height="45" rx="3.92857" stroke="#BCBCBC" stroke-width="0.714286"/>
<path d="M27.3002 30.5143C27.1997 30.414 27.1432 30.2778 27.1431 30.1357V29.8643C27.1447 29.7226 27.201 29.587 27.3002 29.4857L30.9716 25.8215C31.0387 25.7539 31.13 25.7158 31.2252 25.7158C31.3204 25.7158 31.4117 25.7539 31.4788 25.8215L31.9859 26.3286C32.0531 26.3944 32.091 26.4845 32.091 26.5786C32.091 26.6727 32.0531 26.7628 31.9859 26.8286L28.8074 30L31.9859 33.1715C32.0535 33.2385 32.0916 33.3298 32.0916 33.425C32.0916 33.5203 32.0535 33.6115 31.9859 33.6786L31.4788 34.1786C31.4117 34.2462 31.3204 34.2842 31.2252 34.2842C31.13 34.2842 31.0387 34.2462 30.9716 34.1786L27.3002 30.5143Z" fill="#BCBCBC"/>
<rect x="67.5002" y="7.50021" width="45" height="45" rx="3.92857" fill="#103C4A"/>
<rect x="67.5002" y="7.50021" width="45" height="45" rx="3.92857" stroke="#185BC3" stroke-width="0.714286"/>
<path d="M92.5052 35.1431H89.5682V29.8477C89.5682 29.75 89.5682 29.5718 89.5682 29.313C89.5682 29.0493 89.5706 28.7588 89.5755 28.4414C89.5852 28.124 89.5974 27.8384 89.6121 27.5845C89.4851 27.7358 89.3655 27.8652 89.2532 27.9727C89.1458 28.0801 89.0408 28.1802 88.9383 28.2729L87.7224 29.2764L86.221 27.4307L89.8977 24.4351H92.5052V35.1431Z" fill="white"/>
<path d="M151.062 31.0342C151.062 31.7178 150.97 32.3232 150.784 32.8506C150.603 33.3779 150.337 33.8247 149.986 34.1909C149.639 34.5522 149.219 34.8257 148.726 35.0112C148.238 35.1968 147.686 35.2896 147.071 35.2896C146.494 35.2896 145.965 35.1968 145.481 35.0112C145.003 34.8257 144.585 34.5522 144.229 34.1909C143.877 33.8247 143.604 33.3779 143.408 32.8506C143.218 32.3232 143.123 31.7178 143.123 31.0342C143.123 30.126 143.284 29.3569 143.606 28.7271C143.929 28.0972 144.387 27.6187 144.983 27.2915C145.579 26.9644 146.289 26.8008 147.115 26.8008C147.881 26.8008 148.56 26.9644 149.151 27.2915C149.746 27.6187 150.213 28.0972 150.55 28.7271C150.891 29.3569 151.062 30.126 151.062 31.0342ZM145.401 31.0342C145.401 31.5713 145.459 32.0229 145.576 32.3892C145.694 32.7554 145.877 33.0312 146.126 33.2168C146.375 33.4023 146.699 33.4951 147.1 33.4951C147.495 33.4951 147.815 33.4023 148.059 33.2168C148.308 33.0312 148.489 32.7554 148.601 32.3892C148.719 32.0229 148.777 31.5713 148.777 31.0342C148.777 30.4922 148.719 30.043 148.601 29.6865C148.489 29.3252 148.308 29.0542 148.059 28.8735C147.81 28.6929 147.486 28.6025 147.085 28.6025C146.494 28.6025 146.065 28.8052 145.796 29.2104C145.533 29.6157 145.401 30.2236 145.401 31.0342ZM157.434 28.6318H155.501V35.1431H153.267V28.6318H152.036V27.5552L153.267 26.9546V26.354C153.267 25.6558 153.384 25.1138 153.618 24.728C153.858 24.3374 154.192 24.064 154.622 23.9077C155.056 23.7466 155.569 23.666 156.16 23.666C156.595 23.666 156.99 23.7026 157.346 23.7759C157.703 23.8442 157.993 23.9224 158.218 24.0103L157.647 25.6509C157.476 25.5972 157.29 25.5483 157.09 25.5044C156.89 25.4604 156.66 25.4385 156.402 25.4385C156.089 25.4385 155.86 25.5337 155.713 25.7241C155.572 25.9097 155.501 26.1489 155.501 26.4419V26.9546H157.434V28.6318Z" fill="#BCBCBC"/>
<rect x="187.5" y="7.50021" width="45" height="45" rx="3.92857" stroke="#103C4A" stroke-width="0.714286"/>
<path d="M210.469 28.1265C211.065 28.1265 211.607 28.2607 212.095 28.5293C212.583 28.7979 212.974 29.1885 213.267 29.7012C213.56 30.2139 213.706 30.8389 213.706 31.5762C213.706 32.3721 213.545 33.0483 213.223 33.605C212.906 34.1567 212.425 34.5767 211.78 34.8647C211.14 35.1479 210.332 35.2896 209.356 35.2896C208.736 35.2896 208.169 35.2407 207.657 35.1431C207.149 35.0503 206.695 34.9062 206.294 34.7109V32.3379C206.67 32.5088 207.122 32.665 207.649 32.8066C208.181 32.9434 208.67 33.0117 209.114 33.0117C209.47 33.0117 209.773 32.9604 210.022 32.8579C210.271 32.7554 210.459 32.604 210.586 32.4038C210.718 32.2036 210.784 31.957 210.784 31.6641C210.784 31.2588 210.637 30.9414 210.345 30.7119C210.052 30.4775 209.607 30.3604 209.012 30.3604C208.743 30.3604 208.479 30.3872 208.22 30.4409C207.962 30.4946 207.735 30.5532 207.539 30.6167L206.477 30.0894L206.88 24.4351H212.989V26.8447H209.341L209.209 28.2583C209.366 28.229 209.524 28.1997 209.685 28.1704C209.851 28.1411 210.113 28.1265 210.469 28.1265Z" fill="#103C4A"/>
<rect x="247.5" y="7.50021" width="45" height="45" rx="3.92857" stroke="#BCBCBC" stroke-width="0.714286"/>
<path d="M272.7 30.5143C272.801 30.414 272.857 30.2778 272.857 30.1357V29.8643C272.856 29.7226 272.799 29.587 272.7 29.4857L269.029 25.8215C268.962 25.7539 268.871 25.7158 268.775 25.7158C268.68 25.7158 268.589 25.7539 268.522 25.8215L268.015 26.3286C267.947 26.3944 267.91 26.4845 267.91 26.5786C267.91 26.6727 267.947 26.7628 268.015 26.8286L271.193 30L268.015 33.1715C267.947 33.2385 267.909 33.3298 267.909 33.425C267.909 33.5203 267.947 33.6115 268.015 33.6786L268.522 34.1786C268.589 34.2462 268.68 34.2842 268.775 34.2842C268.871 34.2842 268.962 34.2462 269.029 34.1786L272.7 30.5143Z" fill="#103C4A"/>
</svg>
