<svg width="17" height="17" viewBox="0 0 17 17" fill="none" xmlns="http://www.w3.org/2000/svg">
<path d="M6.41392 15.6668C6.78211 15.6668 7.08059 15.3684 7.08059 15.0002C7.08059 14.632 6.78211 14.3335 6.41392 14.3335C6.04573 14.3335 5.74725 14.632 5.74725 15.0002C5.74725 15.3684 6.04573 15.6668 6.41392 15.6668Z" stroke="#103C4A" stroke-width="2" stroke-linecap="round" stroke-linejoin="round"/>
<path d="M13.7473 15.6668C14.1155 15.6668 14.414 15.3684 14.414 15.0002C14.414 14.632 14.1155 14.3335 13.7473 14.3335C13.3791 14.3335 13.0806 14.632 13.0806 15.0002C13.0806 15.3684 13.3791 15.6668 13.7473 15.6668Z" stroke="#103C4A" stroke-width="2" stroke-linecap="round" stroke-linejoin="round"/>
<path d="M1.08063 1.6665H3.74729L5.53396 10.5932C5.59492 10.9001 5.7619 11.1758 6.00566 11.372C6.24942 11.5683 6.55443 11.6725 6.86729 11.6665H13.3473C13.6602 11.6725 13.9652 11.5683 14.2089 11.372C14.4527 11.1758 14.6197 10.9001 14.6806 10.5932L15.7473 4.99984H4.41396" stroke="#103C4A" stroke-width="2" stroke-linecap="round" stroke-linejoin="round"/>
</svg>
