<svg width="20" height="20" viewBox="0 0 20 20" fill="none" xmlns="http://www.w3.org/2000/svg">
<path d="M16.7334 4.95113C14.0971 4.68988 11.4451 4.55529 8.8009 4.55529C7.2334 4.55529 5.6659 4.63446 4.0984 4.79279L2.4834 4.95113M6.83757 4.15154L7.01173 3.11446C7.1384 2.36238 7.2334 1.80029 8.57131 1.80029H10.6455C11.9834 1.80029 12.0863 2.39404 12.2051 3.12238L12.3792 4.15154M15.0313 7.45279L14.5167 15.4249C14.4296 16.6678 14.3584 17.6336 12.1496 17.6336H7.06715C4.8584 17.6336 4.78715 16.6678 4.70007 15.4249L4.18548 7.45279M8.28632 13.2795H10.9226M7.62923 10.1128H11.5876" stroke="#820D0D" stroke-width="1.5" stroke-linecap="round" stroke-linejoin="round"/>
</svg>
