<svg width="38" height="38" viewBox="0 0 38 38" fill="none" xmlns="http://www.w3.org/2000/svg">
<g clip-path="url(#clip0_11_4676)">
<path d="M0 19C0 8.50659 8.50659 0 19 0C29.4934 0 38 8.50659 38 19C38 29.4934 29.4934 38 19 38C8.50659 38 0 29.4934 0 19Z" fill="#349DF0"/>
<path d="M19.0871 14.9246L19.1334 15.6779L18.3612 15.5857C15.5503 15.2321 13.0946 14.0329 11.0096 12.0189L9.99022 11.0196L9.72766 11.7576C9.17165 13.4026 9.52688 15.1398 10.6852 16.3083C11.303 16.954 11.164 17.0462 10.0983 16.6619C9.72766 16.5389 9.40332 16.4466 9.37243 16.4927C9.26432 16.6004 9.63499 17.9994 9.92844 18.5528C10.33 19.3215 11.1486 20.0749 12.0443 20.5207L12.8011 20.8743L11.9053 20.8897C11.0405 20.8897 11.0096 20.905 11.1022 21.2279C11.4111 22.2272 12.6312 23.288 13.9904 23.7492L14.9479 24.0721L14.1139 24.564C12.8784 25.2712 11.4266 25.6709 9.97477 25.7017C9.27976 25.7171 8.70831 25.7786 8.70831 25.8247C8.70831 25.9784 10.5926 26.8394 11.6891 27.1776C14.9788 28.1769 18.8863 27.7464 21.8208 26.0399C23.9058 24.8254 25.9908 22.4117 26.9638 20.0749C27.489 18.8296 28.0141 16.5542 28.0141 15.4627C28.0141 14.7555 28.0604 14.6633 28.9253 13.8177C29.435 13.3257 29.9138 12.7876 30.0064 12.6339C30.1609 12.3418 30.1454 12.3418 29.3578 12.6032C28.045 13.0644 27.8596 13.0029 28.5083 12.3111C28.9871 11.8191 29.5585 10.9274 29.5585 10.666C29.5585 10.6199 29.3269 10.6968 29.0643 10.8352C28.7863 10.9889 28.1685 11.2195 27.7052 11.3579L26.8712 11.6192L26.1144 11.1119C25.6974 10.8352 25.1105 10.5277 24.8016 10.4354C24.0139 10.2202 22.8092 10.251 22.0988 10.4969C20.1682 11.1888 18.9481 12.9721 19.0871 14.9246Z" fill="white"/>
</g>
<defs>
<clipPath id="clip0_11_4676">
<rect width="38" height="38" fill="white"/>
</clipPath>
</defs>
</svg>
