<svg width="38" height="60" viewBox="0 0 38 60" fill="none" xmlns="http://www.w3.org/2000/svg">
<path d="M0.25 7.5C0.25 5.51088 1.04018 3.60322 2.4467 2.1967C3.85322 0.790176 5.76088 0 7.75 0L30.25 0C32.2391 0 34.1468 0.790176 35.5533 2.1967C36.9598 3.60322 37.75 5.51088 37.75 7.5V52.5C37.75 54.4891 36.9598 56.3968 35.5533 57.8033C34.1468 59.2098 32.2391 60 30.25 60H7.75C5.76088 60 3.85322 59.2098 2.4467 57.8033C1.04018 56.3968 0.25 54.4891 0.25 52.5V7.5ZM22.75 48.75C22.75 47.7554 22.3549 46.8016 21.6516 46.0984C20.9484 45.3951 19.9946 45 19 45C18.0054 45 17.0516 45.3951 16.3484 46.0984C15.6451 46.8016 15.25 47.7554 15.25 48.75C15.25 49.7446 15.6451 50.6984 16.3484 51.4016C17.0516 52.1049 18.0054 52.5 19 52.5C19.9946 52.5 20.9484 52.1049 21.6516 51.4016C22.3549 50.6984 22.75 49.7446 22.75 48.75Z" fill="#103C4A"/>
</svg>
