<svg width="64" height="64" viewBox="0 0 64 64" fill="none" xmlns="http://www.w3.org/2000/svg">
<path fill-rule="evenodd" clip-rule="evenodd" d="M32.8996 28.1956C32.8692 30.6126 35.0364 31.9615 36.6689 32.7634C38.3463 33.5863 38.9097 34.1139 38.9033 34.8497C38.8905 35.9759 37.5653 36.4729 36.3248 36.4922C34.2193 36.5252 32.9714 35.9365 31.9841 35.4707L31.9024 35.4322L31.123 39.1093C32.1265 39.5756 33.9848 39.9823 35.9119 40C40.4351 40 43.3945 37.7492 43.4105 34.2592C43.4211 31.6095 41.244 30.4572 39.5019 29.5351C38.3319 28.9159 37.3581 28.4005 37.3748 27.6051C37.3892 27.0048 37.9574 26.3643 39.2026 26.2013C39.8189 26.119 41.5203 26.0561 43.4489 26.9516L44.206 23.3938C43.1688 23.013 41.8356 22.6484 40.1758 22.6484C35.9183 22.6484 32.9236 24.9299 32.8996 28.1956ZM51.4806 22.9548C50.6547 22.9548 49.9585 23.4405 49.6479 24.1859L43.1864 39.7384H47.7065L48.606 37.2327H54.1295L54.6513 39.7384H58.6351L55.1587 22.9548H51.4806ZM53.4173 33.791L52.1128 27.4887L49.8448 33.791H53.4173ZM27.4192 22.9548L23.8564 39.7384H28.1635L31.7248 22.9548H27.4192ZM16.5642 34.3784L21.0474 22.9548H25.5706L18.5921 39.7384H14.0401L10.6053 26.3448C10.3972 25.5203 10.2163 25.2169 9.58252 24.87C8.54695 24.3021 6.83754 23.7712 5.33301 23.4421L5.43544 22.9548H12.7644C13.6976 22.9548 14.5379 23.5808 14.7508 24.6651L16.5642 34.3784Z" fill="url(#paint0_linear_219_1031)"/>
<defs>
<linearGradient id="paint0_linear_219_1031" x1="5.42591" y1="27.9853" x2="20.4922" y2="6.76647" gradientUnits="userSpaceOnUse">
<stop stop-color="#222357"/>
<stop offset="1" stop-color="#254AA5"/>
</linearGradient>
</defs>
</svg>
